<?xml version="1.0" standalone="no"?><!DOCTYPE svg PUBLIC "-//W3C//DTD SVG 1.1//EN" "http://www.w3.org/Graphics/SVG/1.1/DTD/svg11.dtd"><svg t="1608131729808" class="icon" viewBox="0 0 1024 1024" version="1.1" xmlns="http://www.w3.org/2000/svg" p-id="3575" width="16" height="16" xmlns:xlink="http://www.w3.org/1999/xlink"><defs><style type="text/css"></style></defs><path d="M934.112 153.344C782.528 1.792 632.32 68 512 176.128 391.68 68 242.656 0.576 89.856 153.344c-119.104 119.04-119.712 310.336 0 428.736 420.832 378.56 420.736 377.856 420.736 377.856s0.608 1.28 423.52-377.856c119.744-118.4 119.104-309.696 0-428.736z m-45.024 377.472c-225.824 199.648-330.08 306.304-378.144 348.352-48.288-42.656-152.672-150.112-378.304-350.368a229.184 229.184 0 0 1-68.352-163.392c-0.192-63.2 24.992-122.848 70.784-168.064 47.456-46.816 94.08-69.568 142.624-69.568 56.448 0 120.832 31.744 191.456 94.368l42.784 37.952 42.752-37.952c70.24-62.304 134.784-93.888 191.744-93.888 48.672 0 95.264 22.592 142.368 69.056 45.824 45.184 70.976 104.864 70.816 168a230.592 230.592 0 0 1-70.528 165.504z" p-id="3576" fill="#bfbfbf"></path></svg>